# Blender v2.71 (sub 0) OBJ File: 'untitled.blend'
# www.blender.org
o Cube.004
v 6.147623 -0.086369 3.210826
v 5.947623 -0.086369 3.210826
v 5.947615 -0.086369 -3.152178
v 6.147615 -0.086369 -3.152178
v 6.147623 0.413631 3.210826
v 5.947623 0.413631 3.210826
v 5.947615 0.413631 -3.152178
v 6.147615 0.413631 -3.152178
v -5.852378 -0.086369 3.210826
v -6.052378 -0.086369 3.210826
v -6.052385 -0.086369 -3.152178
v -5.852385 -0.086369 -3.152177
v -5.852378 0.413631 3.210826
v -6.052378 0.413631 3.210826
v -6.052385 0.413631 -3.152178
v -5.852385 0.413631 -3.152177
v -5.914781 -0.090476 -2.959347
v -5.914781 -0.090476 -3.159346
v 6.085219 -0.090476 -3.159347
v 6.085219 -0.090476 -2.959347
v -5.914781 0.409524 -2.959347
v -5.914781 0.409524 -3.159346
v 6.085219 0.409524 -3.159347
v 6.085219 0.409524 -2.959347
v 6.000000 -0.083526 -3.000000
v 6.000000 -0.083526 3.000000
v -6.000000 -0.083526 3.000000
v -5.999998 -0.083526 -3.000001
v 6.000003 0.016474 -2.999998
v 5.999997 0.016474 3.000002
v -6.000002 0.016474 2.999999
v -5.999999 0.016474 -3.000000
v -5.999999 -0.094347 3.201263
v -5.999999 -0.094347 3.001263
v 6.000000 -0.094347 3.001263
v 6.000000 -0.094347 3.201263
v -5.999999 0.405653 3.201263
v -5.999999 0.405653 3.001263
v 6.000000 0.405653 3.001263
v 6.000000 0.405653 3.201263
vn 0.000000 0.000000 1.000000
vn -1.000000 0.000000 0.000000
vn 0.000000 0.000000 -1.000000
vn 1.000000 0.000000 -0.000000
vn 0.000000 -1.000000 0.000000
vn 0.000000 1.000000 0.000000
s off
f 6//1 2//1 1//1
f 7//2 3//2 2//2
f 8//3 4//3 3//3
f 5//4 1//4 4//4
f 1//5 2//5 3//5
f 7//6 6//6 5//6
f 14//1 10//1 9//1
f 15//2 11//2 10//2
f 16//3 12//3 11//3
f 13//4 9//4 12//4
f 9//5 10//5 11//5
f 15//6 14//6 13//6
f 22//2 18//2 17//2
f 23//3 19//3 18//3
f 24//4 20//4 19//4
f 21//1 17//1 20//1
f 18//5 19//5 20//5
f 23//6 22//6 21//6
f 25//5 26//5 27//5
f 29//6 32//6 31//6
f 25//4 29//4 30//4
f 26//1 30//1 31//1
f 31//2 32//2 28//2
f 29//3 25//3 28//3
f 38//2 34//2 33//2
f 39//3 35//3 34//3
f 40//4 36//4 35//4
f 37//1 33//1 36//1
f 34//5 35//5 36//5
f 39//6 38//6 37//6
f 5//1 6//1 1//1
f 6//2 7//2 2//2
f 7//3 8//3 3//3
f 8//4 5//4 4//4
f 4//5 1//5 3//5
f 8//6 7//6 5//6
f 13//1 14//1 9//1
f 14//2 15//2 10//2
f 15//3 16//3 11//3
f 16//4 13//4 12//4
f 12//5 9//5 11//5
f 16//6 15//6 13//6
f 21//2 22//2 17//2
f 22//3 23//3 18//3
f 23//4 24//4 19//4
f 24//1 21//1 20//1
f 17//5 18//5 20//5
f 24//6 23//6 21//6
f 28//5 25//5 27//5
f 30//6 29//6 31//6
f 26//4 25//4 30//4
f 27//1 26//1 31//1
f 27//2 31//2 28//2
f 32//3 29//3 28//3
f 37//2 38//2 33//2
f 38//3 39//3 34//3
f 39//4 40//4 35//4
f 40//1 37//1 36//1
f 33//5 34//5 36//5
f 40//6 39//6 37//6

